<svg xmlns="http://www.w3.org/2000/svg" viewBox="0 0 418.85 108.45"><defs><style>.cls-1{fill:#e30613;}</style></defs><g id="Слой_2" data-name="Слой 2"><g id="Слой_1-2" data-name="Слой 1"><path class="cls-1" d="M56.28,59.1H12.61V15.43H56.28ZM0,71.71H68.89V2.82H0Z"/><rect class="cls-1" x="26.24" y="29.06" width="16.41" height="16.42"/><rect class="cls-1" y="94.3" width="418.85" height="14.15"/><path d="M103.74,67.35q8,0,12.5-2.94t4.46-9.49a12.61,12.61,0,0,0-1.44-6.31,13.48,13.48,0,0,0-3.82-4.28,24.61,24.61,0,0,0-5.45-3l-6.45-2.61A78.63,78.63,0,0,1,95.9,35.3a26,26,0,0,1-5.75-4,15.21,15.21,0,0,1-3.62-5.11,16.82,16.82,0,0,1-1.24-6.74q0-8.82,5.85-13.39t16.27-4.56a37.7,37.7,0,0,1,5.45.39,42.44,42.44,0,0,1,5,1.05,39.48,39.48,0,0,1,4.27,1.43,17.38,17.38,0,0,1,3.22,1.69L123,11.7a24,24,0,0,0-7-3.17,32,32,0,0,0-8.88-1.19,26.11,26.11,0,0,0-6,.64,13.16,13.16,0,0,0-4.71,2.09,10.31,10.31,0,0,0-3.13,3.62,11.18,11.18,0,0,0-1.14,5.25,11.09,11.09,0,0,0,1.19,5.36,11.68,11.68,0,0,0,3.33,3.77,26.37,26.37,0,0,0,5,2.88c1.91.86,4,1.75,6.24,2.67,2.72,1.13,5.28,2.25,7.69,3.38a27.7,27.7,0,0,1,6.3,4,16.86,16.86,0,0,1,4.26,5.56,18.27,18.27,0,0,1,1.59,8q0,9.33-6.5,14t-17.6,4.66a48.52,48.52,0,0,1-7.24-.5,45.48,45.48,0,0,1-5.85-1.24,34.94,34.94,0,0,1-4.37-1.53,28,28,0,0,1-2.77-1.39l2.18-5.86a29.68,29.68,0,0,0,2.68,1.39,32.92,32.92,0,0,0,4,1.54,36.24,36.24,0,0,0,5.16,1.24,37.52,37.52,0,0,0,6.35.5"/><path d="M175.22,20.43q.89,5,2.32,10.56T180.7,42.4q1.73,5.79,3.66,11.45t3.93,10.62q1.69-3.77,3.59-9.17t3.78-11.39q1.89-6,3.53-12.1t2.74-11.38h6.35q-3.59,15.1-7.81,27.6t-9.31,23.68h-6q-1.5-3.51-3.15-7.81t-3.4-9.22q-1.74-4.91-3.38-10.3t-3.12-11.05Q170.65,39,169,44.4c-1.08,3.61-2.21,7.05-3.36,10.32s-2.29,6.35-3.39,9.22-2.13,5.47-3.12,7.77h-6.2A250.33,250.33,0,0,1,143.65,48q-4.22-12.49-7.77-27.58h6.84q1.09,5.27,2.74,11.36T149,43.88q1.89,6,3.83,11.36t3.64,9.13q1.89-4.94,3.8-10.6t3.59-11.42Q165.53,36.59,167,31t2.66-10.56Z"/><path d="M227.72,71.71h-6.45V20.43h6.45ZM229.21,5a4.81,4.81,0,0,1-1.39,3.62,4.92,4.92,0,0,1-6.75,0A4.81,4.81,0,0,1,219.69,5a4.81,4.81,0,0,1,1.38-3.62,4.92,4.92,0,0,1,6.75,0A4.81,4.81,0,0,1,229.21,5"/><path d="M257.57,67.15a20.16,20.16,0,0,0,9.18-1.84,6.4,6.4,0,0,0,3.62-6.2,9,9,0,0,0-.65-3.57,7,7,0,0,0-2.13-2.67,18.11,18.11,0,0,0-3.92-2.29q-2.43-1.08-6-2.57-2.87-1.2-5.45-2.44a22,22,0,0,1-4.56-2.87,12.57,12.57,0,0,1-3.18-3.92,11.92,11.92,0,0,1-1.19-5.55A12.47,12.47,0,0,1,248,23.11q4.71-3.87,12.95-3.87a35.52,35.52,0,0,1,8.68.89,28.35,28.35,0,0,1,4.81,1.59L273,27.47a40.64,40.64,0,0,0-4-1.58,26.38,26.38,0,0,0-8.28-1,18.71,18.71,0,0,0-4.12.45,11.16,11.16,0,0,0-3.42,1.39,7.54,7.54,0,0,0-2.38,2.39,6.63,6.63,0,0,0-.89,3.53,7.54,7.54,0,0,0,.79,3.58A8,8,0,0,0,253,38.86,19.93,19.93,0,0,0,256.73,41q2.24,1,5.11,2.17t5.7,2.42a20.76,20.76,0,0,1,4.81,3,14,14,0,0,1,3.38,4.17,13,13,0,0,1,1.28,6.1q0,6.95-5.2,10.51T257.57,72.9a35.75,35.75,0,0,1-10.31-1.14A38.89,38.89,0,0,1,242.5,70l1.68-5.85a10.18,10.18,0,0,0,1.29.65c.66.29,1.56.63,2.68,1a29,29,0,0,0,4,.94,31.84,31.84,0,0,0,5.4.4"/><path d="M302.31,67.15a20.12,20.12,0,0,0,9.17-1.84,6.4,6.4,0,0,0,3.62-6.2,9.18,9.18,0,0,0-.64-3.57,6.94,6.94,0,0,0-2.14-2.67,18.26,18.26,0,0,0-3.91-2.29c-1.63-.72-3.62-1.58-6-2.57q-2.86-1.2-5.45-2.44a22,22,0,0,1-4.56-2.87,12.57,12.57,0,0,1-3.18-3.92A11.92,11.92,0,0,1,288,33.23a12.47,12.47,0,0,1,4.71-10.12q4.71-3.87,12.95-3.87a35.46,35.46,0,0,1,8.68.89,28.35,28.35,0,0,1,4.81,1.59l-1.49,5.75a39.63,39.63,0,0,0-4-1.58,26.33,26.33,0,0,0-8.28-1,18.71,18.71,0,0,0-4.12.45,11.16,11.16,0,0,0-3.42,1.39,7.54,7.54,0,0,0-2.38,2.39,6.63,6.63,0,0,0-.89,3.53,7.54,7.54,0,0,0,.79,3.58,8,8,0,0,0,2.33,2.63A19.93,19.93,0,0,0,301.46,41q2.24,1,5.11,2.17t5.7,2.42a20.55,20.55,0,0,1,4.81,3,13.82,13.82,0,0,1,3.38,4.17,13,13,0,0,1,1.29,6.1q0,6.95-5.21,10.51T302.31,72.9A35.78,35.78,0,0,1,292,71.76,38.89,38.89,0,0,1,287.23,70l1.69-5.85a8.89,8.89,0,0,0,1.29.65,27.25,27.25,0,0,0,2.67,1,29.33,29.33,0,0,0,4,.94,31.88,31.88,0,0,0,5.41.4"/><path d="M361.67,16.27q-2.28,5.25-5.21,12.79t-6.1,16.37H373Q369.81,36.6,366.82,29t-5.15-12.69M382,71.71q-1.4-4.06-2.88-8t-2.89-8.14h-29q-1.39,4.17-2.83,8.19c-1,2.67-1.91,5.34-2.84,8h-13q3.86-11,7.33-20.33t6.79-17.66q3.31-8.32,6.59-15.87T355.94,3h11.93q3.47,7.34,6.74,14.87t6.6,15.87q3.32,8.34,6.84,17.66t7.39,20.33Z"/><rect x="406.35" y="2.98" width="12.5" height="68.73"/></g></g></svg>